<?xml version="1.0" encoding="UTF-8"?>
<svg id="_레이어_2" data-name="레이어 2" xmlns="http://www.w3.org/2000/svg" viewBox="0 0 93.34 61.59">
  <defs>
    <style>
      .cls-1 {
        fill: #ffb13e;
      }
    </style>
  </defs>
  <g id="OBJECTS">
    <g>
      <path class="cls-1" d="M6.73,47.81c7.07-6.8,15.45-12.44,23.48-18.02,8.86-6.16,17.71-12.28,26.41-18.68.71-.52,1.49-1.06,2.31-1.61-6.71-4.41-14.71-7.42-23.01-6.86,0,0-29.76-.72-35.11,28.27-1.45,7.86-.92,15.21,1.28,21.63,1.58-1.64,3.11-3.27,4.64-4.74Z"/>
      <path class="cls-1" d="M89.77,11.69c-1.86-3.6-5.09-7.8-9.27-11.69-18.55,16.99-39.04,31.64-58.75,47.24,8.52,11.13,23.92,16.94,43.51,13.23,33.99-6.44,29.8-38.53,24.5-48.78Z"/>
    </g>
  </g>
</svg>