<?xml version="1.0" encoding="UTF-8"?>
<svg id="_레이어_2" data-name="레이어 2" xmlns="http://www.w3.org/2000/svg" viewBox="0 0 79.29 75.13">
  <defs>
    <style>
      .cls-1 {
        fill: #fb4741;
      }
    </style>
  </defs>
  <g id="OBJECTS">
    <g>
      <path class="cls-1" d="M10.21,60.69C3.4,53.51,0,45.07,0,35.42c0-6.43,1.75-12.39,5.26-17.87,3.51-5.48,8.14-9.76,13.88-12.88C24.9,1.56,30.96,0,37.34,0c9.36,0,17.29,3.12,23.78,9.34,6.49,6.22,9.74,14.6,9.74,25.1s-3.36,19.06-10.07,26.24c-6.7,7.21-15.05,10.8-25.05,10.8s-18.73-3.59-25.53-10.8Z"/>
      <path class="cls-1" d="M65.53,72.68c-1.54-1.63-2.32-3.54-2.32-5.73,0-1.46.4-2.81,1.19-4.06.8-1.24,1.85-2.21,3.15-2.92,1.31-.7,2.68-1.06,4.13-1.06,2.12,0,3.92.71,5.4,2.12s2.21,3.31,2.21,5.7-.76,4.33-2.28,5.95c-1.52,1.64-3.42,2.45-5.68,2.45s-4.25-.81-5.79-2.45Z"/>
    </g>
  </g>
</svg>