<?xml version="1.0" encoding="UTF-8"?>
<svg id="_레이어_2" data-name="레이어 2" xmlns="http://www.w3.org/2000/svg" viewBox="0 0 100.15 79.39">
  <defs>
    <style>
      .cls-1 {
        fill: #ffb13e;
      }
    </style>
  </defs>
  <g id="OBJECTS">
    <path class="cls-1" d="M46.74,79.34s-61.89-3.91-43.24-31.57c16.25-24.1,21.5,19.28,34.4,8.44,12.9-10.85-31.54-23.08-21.5-37.36,14.57-20.73,18.16,17.84,27.47,11.33C53.2,23.66,33.84-1.16,55.11.04c23.77,1.35-1.19,29.65,8.12,31.09,9.32,1.45,14.72-23.39,27.71-11.57,19.35,17.59-44.68,31.57-31.06,38.08,13.62,6.51,19.9-24.66,34.4-9.64,18.16,18.8-8.12,32.3-47.54,31.33Z"/>
  </g>
</svg>