<?xml version="1.0" encoding="UTF-8"?>
<svg id="_레이어_2" data-name="레이어 2" xmlns="http://www.w3.org/2000/svg" viewBox="0 0 90.37 71.31">
  <defs>
    <style>
      .cls-1 {
        fill: #002839;
      }
    </style>
  </defs>
  <g id="OBJECTS">
    <g>
      <path class="cls-1" d="M8.69,30.52S-1.93,28.26.31,17.55C2.54,6.84,12.6-4.43,24.9,1.77c12.29,6.2-.56,33.26-16.21,28.75Z"/>
      <path class="cls-1" d="M50.43,24.54s-7.52-1.6-5.94-9.19S53.21-.23,61.92,4.16c8.71,4.39-.4,23.57-11.48,20.38Z"/>
      <path class="cls-1" d="M59.11,62.19s-7.52-1.6-5.94-9.19c1.58-7.59,8.71-15.58,17.42-11.19,8.71,4.39-.4,23.57-11.48,20.38Z"/>
      <path class="cls-1" d="M78.62,34.25s-5.91-1.25-4.66-7.21c1.24-5.96,6.84-12.23,13.68-8.78,6.84,3.45-.31,18.51-9.02,16Z"/>
      <path class="cls-1" d="M20.94,70.65s-13.91-2.96-10.99-16.99c2.93-14.04,16.11-28.81,32.22-20.69,16.11,8.13-.73,43.59-21.24,37.68Z"/>
    </g>
  </g>
</svg>