<?xml version="1.0" encoding="UTF-8"?>
<svg id="_레이어_2" data-name="레이어 2" xmlns="http://www.w3.org/2000/svg" viewBox="0 0 91.01 89.99">
  <defs>
    <style>
      .cls-1 {
        fill: #fb4741;
      }
    </style>
  </defs>
  <g id="OBJECTS">
    <path class="cls-1" d="M43.87,89.99c-14.46,0-28.48-2.84-35.83-6.62l11.05-17.37c9.31,4.78,38.41,6.04,47.74-.82,1.26-.93,2.97-2.19,1.18-7.03-1.33-3.59-4.38-4.46-20.88-2.94-8.29.76-16.86,1.56-24.84-.19-10.99-2.4-18.29-9.14-21.1-19.48-3.06-11.27.38-18.74,3.8-23.01C10.76,5.32,20.97,1.1,35.34,0l1.89,19.93c-10.62.81-13.52,3.47-14.16,4.27-1.26,1.57-.83,4.45-.25,6.6,1.31,4.82,3.31,6.24,22.03,4.51,7.72-.71,15.71-1.45,23.19-.1,10.47,1.9,17.76,7.64,21.09,16.61,4.22,11.38,1.24,21.89-8.19,28.83-9.19,6.77-23.33,9.34-37.07,9.34Z"/>
  </g>
</svg>